<?xml version="1.0" encoding="utf-8"?>
<!-- Generator: Adobe Illustrator 28.0.0, SVG Export Plug-In . SVG Version: 6.00 Build 0)  -->
<svg version="1.1" id="Layer_2_00000013892799653617987200000014293353160905878444_"
	 xmlns="http://www.w3.org/2000/svg" xmlns:xlink="http://www.w3.org/1999/xlink" x="0px" y="0px" viewBox="0 0 188.5 188.5"
	 style="enable-background:new 0 0 188.5 188.5;" xml:space="preserve">
<style type="text/css">
	.st0{fill:#222222;}
	.st1{fill:#FFFFFF;}
	.st2{fill:#F68720;}
</style>
<g id="I_SVG_Layer_copy">
	<rect class="st0" width="188.5" height="188.5"/>
	<g>
		<path class="st1" d="M46.8,145.9c0-1.8,0-3.2-0.1-4.7h2.7l0.1,2.8h0.1c1-1.6,2.6-3.2,5.4-3.2c2.3,0,4.1,1.4,4.9,3.4H60
			c0.5-1,1.2-1.7,1.9-2.2c1-0.8,2.2-1.2,3.8-1.2c2.3,0,5.7,1.5,5.7,7.5v10.1h-3.1v-9.7c0-3.3-1.2-5.3-3.7-5.3
			c-1.8,0-3.2,1.3-3.7,2.8c-0.1,0.4-0.2,1-0.2,1.6v10.6h-3.1v-10.3c0-2.7-1.2-4.7-3.6-4.7c-2,0-3.4,1.6-3.9,3.1
			c-0.2,0.5-0.2,1-0.2,1.5v10.4h-3.1L46.8,145.9L46.8,145.9z"/>
		<path class="st1" d="M86,158.4l-0.2-2.2h-0.1c-1,1.4-2.8,2.6-5.3,2.6c-3.5,0-5.3-2.4-5.3-4.9c0-4.2,3.7-6.4,10.3-6.4v-0.4
			c0-1.4-0.4-4-3.9-4c-1.6,0-3.3,0.5-4.5,1.3l-0.7-2.1c1.4-0.9,3.5-1.5,5.7-1.5c5.3,0,6.5,3.6,6.5,7v6.4c0,1.5,0.1,2.9,0.3,4.1
			L86,158.4L86,158.4z M85.5,149.6c-3.4-0.1-7.3,0.5-7.3,3.9c0,2,1.3,3,2.9,3c2.2,0,3.7-1.4,4.2-2.9c0.1-0.3,0.2-0.7,0.2-1
			L85.5,149.6L85.5,149.6z"/>
		<path class="st1" d="M96.7,149.1L96.7,149.1c0.5-0.6,1.1-1.4,1.6-1.9l5.1-5.9h3.8l-6.7,7.1l7.6,10.1h-3.8l-5.9-8.2l-1.6,1.8v6.5
			h-3.1v-25.2h3.1L96.7,149.1L96.7,149.1z"/>
		<path class="st1" d="M112,150.4c0.1,4.2,2.8,6,5.9,6c2.2,0,3.6-0.4,4.8-0.9l0.5,2.2c-1.1,0.5-3,1.1-5.7,1.1
			c-5.3,0-8.5-3.5-8.5-8.7s3.1-9.3,8.1-9.3c5.6,0,7.1,4.9,7.1,8.1c0,0.6-0.1,1.1-0.1,1.5L112,150.4L112,150.4z M121.2,148.2
			c0-2-0.8-5.1-4.3-5.1c-3.2,0-4.6,2.9-4.8,5.1C112,148.2,121.2,148.2,121.2,148.2z"/>
		<path class="st1" d="M127.6,155.2c0.9,0.6,2.6,1.2,4.1,1.2c2.3,0,3.3-1.1,3.3-2.6c0-1.5-0.9-2.3-3.2-3.2c-3.1-1.1-4.6-2.8-4.6-4.9
			c0-2.8,2.2-5.1,5.9-5.1c1.7,0,3.3,0.5,4.2,1.1l-0.8,2.3c-0.7-0.4-1.9-1-3.5-1c-1.9,0-2.9,1.1-2.9,2.4c0,1.4,1,2.1,3.3,2.9
			c3,1.1,4.5,2.6,4.5,5.2c0,3-2.4,5.1-6.4,5.1c-1.9,0-3.6-0.5-4.8-1.2L127.6,155.2L127.6,155.2z"/>
	</g>
	<path class="st1" d="M113.8,131L69.4,62.1c0,0,0.4,12.2,0.4,23V131H46.7V29.4h25.3l43.3,68.3c0,0-0.4-11.5-0.4-22.2V29.4h23.1V131
		L113.8,131L113.8,131z"/>
	<path id="_8_back" class="st0" d="M108.2,76.3l-0.2-1.9c4-1.3,3.8-3.1,3.8-10.3c0-9.9-8.9-15-19.3-15S73,54.3,73,64.2
		c0,7.1,0,9.2,3.9,10.6l0.1,2.2c-6,1.9-5.5,5.5-5.5,12.2c0,10.8,9.5,16.3,20.9,16.3s20.9-5.5,20.9-16.3
		C113.3,82.5,114.1,78.1,108.2,76.3L108.2,76.3z"/>
	<path class="st2" d="M92.7,100.5c-9.6,0-17.7-4.6-17.7-13.8c0-5.6,3.2-9.4,8.3-11v-0.1c-3.3-1.2-7-3.9-7-9.9
		c0-8.4,7.6-12.7,16.4-12.7S109,57.3,109,65.7c0,6-3.6,8.8-7,9.9v0.2c5,1.5,8.3,5.3,8.3,11C110.3,95.9,102.3,100.5,92.7,100.5
		L92.7,100.5z M92.7,79.2c-4.1,0-7.2,2.4-7.2,6.6s3.2,6.6,7.2,6.6s7.2-2.4,7.2-6.6S96.7,79.2,92.7,79.2z M92.7,60.9
		c-3.6,0-6.1,2-6.1,5.6c0,3.6,2.5,5.6,6.1,5.6s6.1-2,6.1-5.6S96.2,60.9,92.7,60.9z"/>
</g>
</svg>
