<?xml version="1.0" encoding="UTF-8"?>
<svg id="Sun_Steal_Steel_Bitcoin" data-name="Sun Steal Steel Bitcoin" xmlns="http://www.w3.org/2000/svg" viewBox="0 0 3000 1000">
  <defs>
    <style>
      .cls-1 {
        letter-spacing: -.01em;
      }

      .cls-2 {
        letter-spacing: .05em;
      }

      .cls-3 {
        letter-spacing: .05em;
      }

      .cls-4 {
        letter-spacing: .04em;
      }

      .cls-5 {
        letter-spacing: -.02em;
      }

      .cls-6 {
        letter-spacing: .02em;
      }

      .cls-7 {
        font-family: FredokaOne-Regular, 'Fredoka One';
        font-size: 116px;
      }

      .cls-7, .cls-8 {
        fill: #f68720;
      }

      .cls-9, .cls-10, .cls-11, .cls-12 {
        fill: #fff;
      }

      .cls-9, .cls-13 {
        letter-spacing: .06em;
      }

      .cls-9, .cls-11 {
        font-family: RalewayRoman-Bold, Raleway;
        font-size: 59px;
        font-variation-settings: 'wght' 700;
        font-weight: 700;
      }

      .cls-10 {
        font-family: RalewayRoman-Medium, Raleway;
        font-size: 157.82px;
        font-variation-settings: 'wght' 500;
        font-weight: 500;
        letter-spacing: .02em;
        stroke: #fff;
        stroke-miterlimit: 10;
        stroke-width: 4px;
      }

      .cls-14 {
        letter-spacing: .06em;
      }

      .cls-15 {
        letter-spacing: .03em;
      }

      .cls-16 {
        letter-spacing: -.05em;
      }

      .cls-17 {
        letter-spacing: .02em;
      }

      .cls-18 {
        letter-spacing: .02em;
      }

      .cls-12, .cls-8 {
        stroke-width: 0px;
      }
    </style>
  </defs>
  <g id="Square_Logo_Orange" data-name="Square Logo Orange">
    <g id="Icons">
      <g id="Bitcoin">
        <path class="cls-8" d="m2526.07,196.81c-3.7-39.78-37.98-53.22-81.31-57.13l.15-55.15-33.59-.09-.15,53.71c-8.84,0-17.86.12-26.82.27l.18-54.07-33.56-.09-.18,55.15c-7.28.12-14.4.24-21.38.21v-.18l-46.31-.15-.09,35.87s24.81-.39,24.39.06c13.59.03,18.01,7.97,19.27,14.76l-.18,62.85c.93,0,2.17.06,3.55.24h-3.55l-.27,88.05c-.6,4.27-3.16,11.1-12.66,11.1.42.39-24.42-.09-24.42-.09l-6.8,40.08,43.69.12c8.12.03,16.12.21,24,.27l-.15,55.78,33.53.09.15-55.21c9.2.21,18.13.33,26.82.33l-.18,54.94,33.59.09.18-55.69c56.47-3.07,96.01-17.17,101.07-70.18,4.09-42.67-15.94-61.76-47.96-69.58,19.49-9.86,31.72-27.27,28.96-56.38h0l.03.03Zm-47.33,119.14c-.12,41.71-71.48,36.75-94.24,36.69l.24-73.91c22.76.06,94.15-6.25,94,37.23h0Zm-15.31-104.34c-.12,37.92-59.66,33.32-78.6,33.26l.21-67.03c18.94.06,78.51-5.8,78.39,33.77h0Z"/>
      </g>
    </g>
    <g id="Sun">
      <g>
        <circle class="cls-8" cx="579.01" cy="268.15" r="99.03" transform="translate(-20.03 487.96) rotate(-45)"/>
        <path class="cls-8" d="m579.01,169.62c54.33,0,98.53,44.2,98.53,98.53s-44.2,98.53-98.53,98.53-98.53-44.2-98.53-98.53,44.2-98.53,98.53-98.53m0-1c-54.97,0-99.53,44.56-99.53,99.53s44.56,99.53,99.53,99.53,99.53-44.56,99.53-99.53-44.56-99.53-99.53-99.53h0Z"/>
      </g>
      <g id="Small_Lines" data-name="Small Lines">
        <rect class="cls-8" x="410.67" y="318.75" width="48.32" height="18.37" rx="9" ry="9" transform="translate(-92.26 190.86) rotate(-22.44)"/>
        <rect class="cls-8" x="694.67" y="199.75" width="48.32" height="18.37" rx="9" ry="9" transform="translate(-25.32 290.27) rotate(-22.44)"/>
        <rect class="cls-8" x="697.31" y="315.2" width="48.32" height="18.37" rx="9" ry="9" transform="translate(178.08 -250.48) rotate(22.4)"/>
        <rect class="cls-8" x="412.04" y="199.29" width="48.32" height="18.37" rx="9" ry="9" transform="translate(112.37 -150.51) rotate(22.4)"/>
        <rect class="cls-8" x="496" y="118" width="48.32" height="18.37" rx="9" ry="9" transform="translate(445.48 -403.07) rotate(68.24)"/>
        <rect class="cls-8" x="611.57" y="403.41" width="48.32" height="18.37" rx="9" ry="9" transform="translate(783.3 -330.79) rotate(68.24)"/>
        <rect class="cls-8" x="496.09" y="404.66" width="48.32" height="18.37" rx="9" ry="9" transform="translate(1104.98 97.58) rotate(113.09)"/>
        <rect class="cls-8" x="615.43" y="120.8" width="48.32" height="18.37" rx="9" ry="9" transform="translate(1010.01 -407.39) rotate(113.09)"/>
      </g>
      <g id="Large_Lines" data-name="Large Lines">
        <rect class="cls-8" x="702.67" y="260.75" width="76.83" height="18.37" rx="9" ry="9"/>
        <rect class="cls-8" x="372.67" y="260.75" width="76.83" height="18.37" rx="9" ry="9"/>
        <rect class="cls-8" x="538.87" y="97.03" width="76.83" height="18.37" rx="9" ry="9" transform="translate(683.5 -471.07) rotate(90)"/>
        <rect class="cls-8" x="538.87" y="427.03" width="76.83" height="18.37" rx="9" ry="9" transform="translate(1013.5 -141.07) rotate(90)"/>
        <rect class="cls-8" x="423.03" y="381.49" width="76.83" height="18.37" rx="9" ry="9" transform="translate(1063.06 330.54) rotate(134.04)"/>
        <rect class="cls-8" x="656.37" y="375.82" width="76.83" height="18.37" rx="9" ry="9" transform="translate(462.98 -374.75) rotate(44.04)"/>
        <rect class="cls-8" x="419.15" y="146.42" width="76.83" height="18.37" rx="9" ry="9" transform="translate(236.81 -274.34) rotate(44.04)"/>
        <rect class="cls-8" x="652.44" y="144.26" width="76.83" height="18.37" rx="9" ry="9" transform="translate(1281.41 -236.5) rotate(134.04)"/>
      </g>
    </g>
    <g id="Dumbbell">
      <g>
        <path class="cls-8" d="m1672.35,227.64c6.51-12.01,48.19,21.14,54.83,26.58,9.46,7.75,18.27,16.31,27.25,24.59,22.48-5.64,22.31-.38,41.87-18.94,6.09-5.78,18.91-19.46,21.27-27.25.31-1.01,1.72-15.94,3.32-20.93-8.41-7.24-66.63-72.91-51.17-81.41,4.99-2.75,39.6,26.23,45.19,30.9,15.48,12.93,39.95,34.98,53.83,49.18,11.46,11.73,65.93,72.74,69.45,84.07,2.11,6.8-4.64,8.11-9.97,6.65-16.8-4.62-58.22-39.45-71.44-53.5l-17.28,4.32c-13.09,16.92-28.35,32.03-45.19,45.19q-2.49,8.14-4.98,16.28c12.99,13.45,52.78,58.35,54.5,75.43,1.61,16-16.99.92-21.93-2.66-40.35-29.22-99.93-89.37-130.93-128.93-3.11-3.97-20.56-25.97-18.61-29.57Z"/>
        <path class="cls-8" d="m1625.83,279.48c1.43-1.75,4.67-3.79,6.98-3.99,44.34,61.55,98.67,115.73,159.84,160.5,1.16,1.23-3.63,6.35-4.98,7.31-12.15,8.65-52.52-22.54-61.14-31.57-3.13,3.33-26.45,20.58-29.24,19.94-14.32-8.1-54-45.13-57.82-58.49-2.43-8.47,11.61-25.45,18.61-29.91-9.41-9.05-42.64-51.04-32.23-63.8Z"/>
        <path class="cls-8" d="m1818.56,87.41c12.92-18.96,56.3,18.68,67.12,28.25,5.42-6.77,17.51-17.64,26.25-18.61,9.34-1.03,36.48,26.19,43.2,33.56,3.13,3.43,19.96,23.51,18.94,26.58-.87,2.63-16.11,22.92-20.27,26.58,10.48,11.55,49.12,57.25,24.92,66.79-45.4-61.53-99.94-115.97-161.5-161.17,1.58-1.19,1.26-1.89,1.33-1.99Z"/>
        <path class="cls-8" d="m1646.1,251.89c3.56-4.39,9.75-9.27,15.29-10.97,40.38,60.66,106.68,126.37,166.82,167.48-3.95,8.98-11.74,16.53-21.27,18.94-5.87-.81-68.99-55.17-77.43-63.14-21.61-20.4-64.23-68.34-81.08-92.38-5.8-8.28-9.65-10.9-2.33-19.94Z"/>
        <path class="cls-8" d="m1788.32,109.67c3.96-4.72,11.46-12.06,17.94-8.97,10.76,5.12,65.89,52.54,77.43,63.47,31.66,30,61.09,66.39,87.06,101.35-3.88,9.08-11.24,16.14-20.27,19.94-42.71-62.33-104.95-124.38-167.48-166.82-.21-.48,4.61-8.13,5.32-8.97Z"/>
      </g>
    </g>
    <path id="Steak" class="cls-8" d="m1398.33,194.2c-2.27,16.62-4.5,31.86-6.69,45.74-1.88,12.02,1.82,25.8-9.79,37.36-7.15,7.1-21.17,8.33-31.43,15.6-33.51,10.95-55.52,20.72-66.04,29.32-15.64,12.78-32.26,23.4-49.85,31.84-21.39,14.08-43.79,21.58-67.21,22.52l-47.21,2.17-28.74,1.82c-30.93,5.71-50.51,8.86-58.76,9.44-25.34,1.76-37.47-11.18-36.42-38.82.9-24.9,10.83-49.03,29.79-72.37l15.54-7.92c21.97-2.15,36.54-11.79,43.69-28.91-.55-7.86-1.23-16.56-2.05-26.1-.82-9.77-.51-18.41.94-25.92,3.21-16.38,8.23-30.71,15.07-42.99,14.19-25.39,80.93-19.88,109.37-12.02,27.74,7.68,56.12,3.58,84.33,3.11,32.06-.55,59.96,7.6,83.69,24.46,13.45,9.54,20.7,20.1,21.76,31.67Zm-201.45,17.65c-1.09,2.31-1.82,4.28-2.17,5.92-.26,1.07.4,2.15,1.46,2.41.73.18,1.51-.07,2-.65,30.91-36.36,46.15-66.5,100.34-57.36,1.09.18,2.11-.55,2.3-1.63.05-.32.03-.64-.07-.95-.47-1.33-1.39-2.15-2.76-2.46-11.96-2.87-30.44-2.35-46.45,1.06-20.88,4.5-41.21,2.31-60.99-6.57-4.46-2.03-8.62-2.4-12.49-1.11-2.42.82-2.44,1.68-.06,2.58,26.55,9.85,32.84,29.44,18.88,58.76Zm-24.46-43.93l-8.33-5.81c-13.06-9.66-27.47-12.71-43.22-9.15-1.8.43-3.28,1.37-4.46,2.82-18,22.58-11.73,41.46-11.44,66.09.47,38.3-25.45,48.56-54.72,62.63-6.49,3.13-8.97,8.88-7.45,17.24,1.41,7.66,5.59,9.75,12.55,6.28,15.05-7.43,31.28-13.72,48.68-18.88,16.83-5.04,44.28-18.83,51.96-29.44,17.75-24.44,28.33-49.18,31.73-74.25,1.17-8.64-3.93-14.49-15.31-17.54Zm203.68,34.19c-16.42-47.09-95.77-33.02-128.26-18-6.41,2.97-13.35,10.13-20.82,21.46-1.13,1.72-.68,2.62,1.35,2.7,34.13,1.29,67.62,6.49,100.46,15.6,14.95,4.16,57,6.1,47.27-21.76Zm-305.77,144.96c10.45,7.53,22.71,12.23,35.53,13.45,44.96,4.29,79.38,1.03,94.71-5.06,8.75-3.48,16.71-7.87,16.71-7.87,6.63-3.57,14.89-8.98,26.93-19.16,4.08-3.45,51.32-29.26,51.32-29.26,15.95-5.4,56.01-17.18,63.75-31.84,2.5-4.68.99-10.49-3.46-13.37-22.75-14.7-45.69-23.99-68.79-27.86l-31.96-2.82c-18.96-3.32-50.55,6.39-50.55,6.39l-22.83,27.92c-.14.11-.27.23-.4.34-33.19,30.89-72.45,49.42-117.76,55.6-2.97.41-9.6,6.38-9.34,12.28.1,2.16,36.11,36.86,37.17,37.57,36.96,24.64-25.95-7.62-30.44,3.8-1.04,2.65-1.59,4.05-3.08,5.47-8.24,7.89-31.94,3.47-43.1-11.91,0,0-13.49-18.58,1.58-44.69,2.6-4.51,4.9-5.58,6.5-5.85,4.96-.83,9.68,4.99,11.21,6.78,4.86,5.7,15.06,14.76,36.31,30.08Z"/>
  </g>
  <text class="cls-7" transform="translate(814.44 834.78)"><tspan class="cls-17" x="0" y="0">Hap</tspan><tspan class="cls-1" x="224.69" y="0">p</tspan><tspan class="cls-6" x="291.04" y="0">y Hea</tspan><tspan class="cls-5" x="618.73" y="0">l</tspan><tspan class="cls-17" x="654.35" y="0">thy </tspan><tspan class="cls-16" x="885.3" y="0">W</tspan><tspan class="cls-17" x="995.38" y="0">ea</tspan><tspan class="cls-5" x="1135.63" y="0">l</tspan><tspan class="cls-18" x="1171.24" y="0">thy</tspan></text>
  <text class="cls-9" transform="translate(513.25 577.22)"><tspan x="0" y="0">SUN</tspan></text>
  <text class="cls-11" transform="translate(1100.25 577.22)"><tspan class="cls-13" x="0" y="0">STEA</tspan><tspan class="cls-2" x="161.95" y="0">K</tspan></text>
  <text class="cls-11" transform="translate(1711.25 577.22)"><tspan class="cls-13" x="0" y="0">STEE</tspan><tspan class="cls-15" x="157.76" y="0">L</tspan></text>
  <text class="cls-11" transform="translate(2285.25 577.22)"><tspan class="cls-13" x="0" y="0">BI</tspan><tspan class="cls-4" x="64.07" y="0">T</tspan><tspan class="cls-3" x="103.19" y="0">C</tspan><tspan class="cls-14" x="146.67" y="0">OIN</tspan></text>
  <text class="cls-10" transform="translate(859.44 326.3)"><tspan x="0" y="0">+</tspan></text>
  <text class="cls-10" transform="translate(1469.44 326.3)"><tspan x="0" y="0">+</tspan></text>
  <text class="cls-10" transform="translate(2076.44 326.3)"><tspan x="0" y="0">+</tspan></text>
  <rect class="cls-12" x="285.5" y="749.5" width="490" height="35"/>
  <rect class="cls-12" x="285.5" y="799.5" width="490" height="35"/>
  <rect class="cls-12" x="2227.5" y="749.5" width="490" height="35"/>
  <rect class="cls-12" x="2227.5" y="799.5" width="490" height="35"/>
</svg>